<?xml version="1.0" encoding="UTF-8" standalone="no"?>
<!DOCTYPE svg PUBLIC "-//W3C//DTD SVG 1.1//EN" "http://www.w3.org/Graphics/SVG/1.1/DTD/svg11.dtd">
<svg width="100%" height="100%" viewBox="0 0 530 250" version="1.1" xmlns="http://www.w3.org/2000/svg" xmlns:xlink="http://www.w3.org/1999/xlink" xml:space="preserve" xmlns:serif="http://www.serif.com/" style="fill-rule:evenodd;clip-rule:evenodd;stroke-linejoin:round;stroke-miterlimit:2;">
    <g transform="matrix(1.66667,0,0,1.66667,-474.092,-125)">
        <circle cx="359.455" cy="150" r="75" style="fill:rgb(158,78,112);"/>
    </g>
    <g id="Lettering" transform="matrix(1,0,0,1,-9.98954,-25)">
        <g transform="matrix(1.56038,0,0,1.56038,-248.267,-54.7431)">
            <g transform="matrix(50,0,0,50,287.109,149.683)">
                <path d="M0.208,-0.665C0.208,-0.653 0.206,-0.641 0.201,-0.63C0.196,-0.62 0.19,-0.61 0.182,-0.602C0.174,-0.594 0.164,-0.588 0.153,-0.583C0.142,-0.579 0.131,-0.576 0.118,-0.576C0.106,-0.576 0.094,-0.579 0.083,-0.583C0.072,-0.588 0.063,-0.594 0.055,-0.602C0.047,-0.61 0.041,-0.62 0.036,-0.63C0.031,-0.641 0.029,-0.653 0.029,-0.665C0.029,-0.677 0.031,-0.689 0.036,-0.699C0.041,-0.71 0.047,-0.72 0.055,-0.728C0.063,-0.736 0.072,-0.742 0.083,-0.747C0.094,-0.752 0.106,-0.754 0.118,-0.754C0.131,-0.754 0.142,-0.752 0.153,-0.747C0.164,-0.742 0.174,-0.736 0.182,-0.728C0.19,-0.72 0.196,-0.71 0.201,-0.699C0.206,-0.689 0.208,-0.677 0.208,-0.665ZM0.185,0L0.051,0L0.051,-0.523L0.185,-0.523L0.185,0Z" style="fill:white;fill-rule:nonzero;"/>
            </g>
            <g transform="matrix(50,0,0,50,298.901,149.683)">
                <path d="M0.557,0L0.525,0L0.473,-0.072C0.46,-0.06 0.447,-0.05 0.433,-0.04C0.419,-0.03 0.404,-0.021 0.388,-0.014C0.373,-0.007 0.357,-0.001 0.34,0.003C0.324,0.008 0.307,0.01 0.29,0.01C0.253,0.01 0.219,0.004 0.186,-0.009C0.154,-0.021 0.126,-0.039 0.101,-0.063C0.077,-0.086 0.058,-0.115 0.044,-0.149C0.03,-0.184 0.023,-0.222 0.023,-0.266C0.023,-0.307 0.03,-0.344 0.044,-0.378C0.058,-0.412 0.077,-0.441 0.101,-0.466C0.126,-0.49 0.154,-0.509 0.186,-0.523C0.219,-0.536 0.253,-0.543 0.29,-0.543C0.307,-0.543 0.324,-0.541 0.34,-0.537C0.357,-0.532 0.373,-0.527 0.389,-0.519C0.404,-0.512 0.419,-0.503 0.433,-0.493C0.448,-0.483 0.461,-0.472 0.473,-0.46L0.525,-0.522L0.557,-0.522L0.557,0ZM0.423,-0.266C0.423,-0.284 0.419,-0.302 0.412,-0.319C0.405,-0.336 0.396,-0.351 0.384,-0.365C0.372,-0.378 0.358,-0.388 0.342,-0.396C0.325,-0.404 0.308,-0.408 0.29,-0.408C0.272,-0.408 0.255,-0.405 0.239,-0.399C0.222,-0.393 0.208,-0.384 0.197,-0.372C0.185,-0.36 0.175,-0.345 0.168,-0.327C0.162,-0.309 0.158,-0.289 0.158,-0.266C0.158,-0.243 0.162,-0.223 0.168,-0.205C0.175,-0.188 0.185,-0.173 0.197,-0.161C0.208,-0.149 0.222,-0.139 0.239,-0.133C0.255,-0.127 0.272,-0.124 0.29,-0.124C0.308,-0.124 0.325,-0.128 0.342,-0.136C0.358,-0.144 0.372,-0.155 0.384,-0.168C0.396,-0.181 0.405,-0.196 0.412,-0.213C0.419,-0.23 0.423,-0.248 0.423,-0.266Z" style="fill:white;fill-rule:nonzero;"/>
            </g>
            <g transform="matrix(50,0,0,50,329.296,149.683)">
                <path d="M0.338,0L0.033,0L0.033,-0.133L0.338,-0.133C0.347,-0.133 0.355,-0.136 0.361,-0.143C0.368,-0.149 0.371,-0.157 0.371,-0.166C0.371,-0.175 0.368,-0.182 0.361,-0.185C0.355,-0.188 0.347,-0.189 0.338,-0.189L0.199,-0.189C0.176,-0.189 0.154,-0.193 0.134,-0.202C0.114,-0.211 0.097,-0.223 0.082,-0.238C0.067,-0.253 0.055,-0.271 0.046,-0.291C0.038,-0.311 0.033,-0.333 0.033,-0.356C0.033,-0.379 0.038,-0.401 0.046,-0.421C0.055,-0.441 0.067,-0.459 0.082,-0.474C0.097,-0.489 0.114,-0.5 0.134,-0.509C0.154,-0.518 0.176,-0.522 0.199,-0.522L0.469,-0.522L0.469,-0.389L0.199,-0.389C0.19,-0.389 0.182,-0.386 0.176,-0.379C0.169,-0.373 0.166,-0.365 0.166,-0.356C0.166,-0.347 0.169,-0.338 0.176,-0.332C0.182,-0.325 0.19,-0.322 0.199,-0.322L0.338,-0.322C0.361,-0.322 0.382,-0.318 0.402,-0.31C0.423,-0.303 0.44,-0.292 0.455,-0.278C0.47,-0.265 0.482,-0.248 0.491,-0.229C0.5,-0.21 0.504,-0.189 0.504,-0.166C0.504,-0.143 0.5,-0.121 0.491,-0.101C0.482,-0.081 0.47,-0.064 0.455,-0.049C0.44,-0.033 0.423,-0.022 0.402,-0.013C0.382,-0.004 0.361,0 0.338,0Z" style="fill:white;fill-rule:nonzero;"/>
            </g>
            <g transform="matrix(50,0,0,50,369.482,149.683)">
                <path d="M0.624,-0.072C0.591,-0.044 0.555,-0.022 0.515,-0.007C0.474,0.008 0.432,0.015 0.389,0.015C0.356,0.015 0.324,0.011 0.293,0.002C0.262,-0.006 0.234,-0.019 0.207,-0.034C0.18,-0.05 0.155,-0.069 0.133,-0.091C0.111,-0.113 0.092,-0.138 0.076,-0.165C0.061,-0.192 0.048,-0.22 0.04,-0.251C0.031,-0.282 0.027,-0.314 0.027,-0.347C0.027,-0.38 0.031,-0.412 0.04,-0.443C0.048,-0.474 0.061,-0.503 0.076,-0.53C0.092,-0.557 0.111,-0.581 0.133,-0.604C0.155,-0.626 0.18,-0.645 0.207,-0.66C0.234,-0.676 0.262,-0.688 0.293,-0.697C0.324,-0.706 0.356,-0.71 0.389,-0.71C0.432,-0.71 0.474,-0.703 0.515,-0.688C0.555,-0.673 0.591,-0.651 0.624,-0.623L0.55,-0.501C0.529,-0.523 0.505,-0.54 0.477,-0.552C0.449,-0.564 0.42,-0.57 0.389,-0.57C0.358,-0.57 0.329,-0.564 0.302,-0.552C0.275,-0.541 0.252,-0.525 0.231,-0.505C0.211,-0.485 0.195,-0.461 0.184,-0.434C0.172,-0.407 0.166,-0.378 0.166,-0.347C0.166,-0.317 0.172,-0.288 0.184,-0.261C0.195,-0.234 0.211,-0.211 0.231,-0.19C0.252,-0.17 0.275,-0.154 0.302,-0.143C0.329,-0.131 0.358,-0.125 0.389,-0.125C0.42,-0.125 0.449,-0.131 0.477,-0.143C0.505,-0.155 0.529,-0.172 0.55,-0.194L0.624,-0.072Z" style="fill:white;fill-rule:nonzero;"/>
            </g>
            <g transform="matrix(50,0,0,50,401.489,149.683)">
                <path d="M0.184,0L0.051,0L0.051,-0.523L0.083,-0.523L0.127,-0.461C0.148,-0.48 0.173,-0.496 0.2,-0.506C0.228,-0.517 0.256,-0.522 0.285,-0.522L0.403,-0.522L0.403,-0.389L0.285,-0.389C0.271,-0.389 0.258,-0.387 0.246,-0.381C0.233,-0.376 0.222,-0.369 0.213,-0.36C0.204,-0.351 0.197,-0.34 0.192,-0.328C0.187,-0.315 0.184,-0.302 0.184,-0.288L0.184,0Z" style="fill:white;fill-rule:nonzero;"/>
            </g>
            <g transform="matrix(50,0,0,50,421.703,149.683)">
                <path d="M0.557,0L0.525,0L0.473,-0.072C0.46,-0.06 0.447,-0.05 0.433,-0.04C0.419,-0.03 0.404,-0.021 0.388,-0.014C0.373,-0.007 0.357,-0.001 0.34,0.003C0.324,0.008 0.307,0.01 0.29,0.01C0.253,0.01 0.219,0.004 0.186,-0.009C0.154,-0.021 0.126,-0.039 0.101,-0.063C0.077,-0.086 0.058,-0.115 0.044,-0.149C0.03,-0.184 0.023,-0.222 0.023,-0.266C0.023,-0.307 0.03,-0.344 0.044,-0.378C0.058,-0.412 0.077,-0.441 0.101,-0.466C0.126,-0.49 0.154,-0.509 0.186,-0.523C0.219,-0.536 0.253,-0.543 0.29,-0.543C0.307,-0.543 0.324,-0.541 0.34,-0.537C0.357,-0.532 0.373,-0.527 0.389,-0.519C0.404,-0.512 0.419,-0.503 0.433,-0.493C0.448,-0.483 0.461,-0.472 0.473,-0.46L0.525,-0.522L0.557,-0.522L0.557,0ZM0.423,-0.266C0.423,-0.284 0.419,-0.302 0.412,-0.319C0.405,-0.336 0.396,-0.351 0.384,-0.365C0.372,-0.378 0.358,-0.388 0.342,-0.396C0.325,-0.404 0.308,-0.408 0.29,-0.408C0.272,-0.408 0.255,-0.405 0.239,-0.399C0.222,-0.393 0.208,-0.384 0.197,-0.372C0.185,-0.36 0.175,-0.345 0.168,-0.327C0.162,-0.309 0.158,-0.289 0.158,-0.266C0.158,-0.243 0.162,-0.223 0.168,-0.205C0.175,-0.188 0.185,-0.173 0.197,-0.161C0.208,-0.149 0.222,-0.139 0.239,-0.133C0.255,-0.127 0.272,-0.124 0.29,-0.124C0.308,-0.124 0.325,-0.128 0.342,-0.136C0.358,-0.144 0.372,-0.155 0.384,-0.168C0.396,-0.181 0.405,-0.196 0.412,-0.213C0.419,-0.23 0.423,-0.248 0.423,-0.266Z" style="fill:white;fill-rule:nonzero;"/>
            </g>
            <g transform="matrix(50,0,0,50,452.099,149.683)">
                <path d="M0.508,-0.419L0.41,-0.321C0.405,-0.334 0.399,-0.347 0.39,-0.358C0.382,-0.369 0.372,-0.378 0.362,-0.385C0.351,-0.393 0.34,-0.398 0.327,-0.402C0.315,-0.406 0.302,-0.408 0.289,-0.408C0.271,-0.408 0.254,-0.404 0.238,-0.397C0.221,-0.389 0.207,-0.379 0.196,-0.365C0.184,-0.352 0.174,-0.336 0.167,-0.317C0.161,-0.299 0.157,-0.278 0.157,-0.256C0.157,-0.238 0.161,-0.221 0.167,-0.205C0.174,-0.189 0.184,-0.175 0.196,-0.163C0.207,-0.151 0.221,-0.141 0.238,-0.134C0.254,-0.127 0.271,-0.124 0.289,-0.124C0.302,-0.124 0.315,-0.126 0.327,-0.129C0.339,-0.133 0.35,-0.138 0.361,-0.145C0.371,-0.151 0.381,-0.16 0.389,-0.169C0.397,-0.179 0.404,-0.189 0.409,-0.201L0.507,-0.103C0.494,-0.085 0.48,-0.07 0.464,-0.056C0.448,-0.042 0.431,-0.03 0.412,-0.02C0.393,-0.01 0.373,-0.003 0.353,0.002C0.332,0.007 0.311,0.01 0.289,0.01C0.252,0.01 0.218,0.003 0.185,-0.011C0.153,-0.025 0.125,-0.044 0.1,-0.068C0.076,-0.092 0.057,-0.12 0.043,-0.152C0.029,-0.185 0.022,-0.219 0.022,-0.256C0.022,-0.296 0.029,-0.333 0.043,-0.368C0.057,-0.403 0.076,-0.433 0.1,-0.459C0.125,-0.485 0.153,-0.506 0.185,-0.521C0.218,-0.535 0.252,-0.543 0.289,-0.543C0.311,-0.543 0.332,-0.54 0.353,-0.535C0.374,-0.529 0.394,-0.521 0.413,-0.51C0.432,-0.5 0.45,-0.487 0.466,-0.472C0.482,-0.456 0.496,-0.439 0.508,-0.419Z" style="fill:white;fill-rule:nonzero;"/>
            </g>
            <g transform="matrix(50,0,0,50,478.198,149.683)">
                <path d="M0.185,0L0.051,0L0.051,-0.731L0.185,-0.731L0.185,-0.27L0.384,-0.522L0.537,-0.522L0.364,-0.304L0.537,0L0.384,0L0.278,-0.19L0.185,-0.067L0.185,0Z" style="fill:white;fill-rule:nonzero;"/>
            </g>
        </g>
        <g transform="matrix(1.53019,0,0,1.53019,15.3471,41.0835)">
            <path d="M70.239,22.165L63.339,41.784L58.603,41.784L58.603,61.403L68.819,61.403L74.67,69.23L67.72,81.022L58.603,81.022L58.603,100.573L76.758,100.573L84.3,110.62L81.984,100.573L87.998,100.573C89.365,100.573 90.641,100.323 91.826,99.821C93.011,99.32 94.048,98.625 94.936,97.736C95.825,96.848 96.52,95.811 97.021,94.626C97.523,93.441 97.773,92.165 97.773,90.798C97.773,89.431 97.523,88.155 97.021,86.97C96.52,85.785 95.825,84.748 94.936,83.859C94.048,82.971 93.011,82.276 91.826,81.774C90.641,81.273 89.365,81.022 87.998,81.022L77.851,81.022L93.12,67.4L89.71,61.264C90.445,61.141 91.15,60.937 91.826,60.651C93.011,60.15 94.048,59.455 94.936,58.566C95.825,57.678 96.52,56.629 97.021,55.422C97.523,54.214 97.773,52.927 97.773,51.559C97.773,50.192 97.523,48.916 97.021,47.731C96.52,46.546 95.825,45.51 94.936,44.621C94.048,43.732 93.011,43.037 91.826,42.536C90.641,42.035 89.365,41.784 87.998,41.784L84.561,41.784L99.935,24.722C103.273,26.247 106.21,28.278 108.745,30.812C111.411,33.478 113.519,36.589 115.068,40.143C116.618,43.698 117.392,47.503 117.392,51.559C117.392,53.382 117.142,55.251 116.64,57.165C116.139,59.079 115.433,60.925 114.521,62.702C113.61,64.479 112.516,66.097 111.24,67.556C109.964,69.014 108.551,70.222 107.002,71.179C108.597,72.045 110.032,73.218 111.308,74.699C112.584,76.18 113.678,77.809 114.59,79.587C115.501,81.364 116.196,83.221 116.675,85.158C117.153,87.095 117.392,88.975 117.392,90.798C117.392,94.854 116.618,98.659 115.068,102.214C113.519,105.768 111.411,108.879 108.745,111.545C106.079,114.211 102.968,116.319 99.414,117.868C95.859,119.418 92.054,120.192 87.998,120.192L38.984,120.192L38.984,22.165L70.239,22.165Z" style="fill:white;fill-rule:nonzero;"/>
        </g>
    </g>
</svg>
