<?xml version="1.0" encoding="UTF-8" standalone="no"?>
<!DOCTYPE svg PUBLIC "-//W3C//DTD SVG 1.1//EN" "http://www.w3.org/Graphics/SVG/1.1/DTD/svg11.dtd">
<svg width="100%" height="100%" viewBox="0 0 512 512" version="1.1" xmlns="http://www.w3.org/2000/svg" xmlns:xlink="http://www.w3.org/1999/xlink" xml:space="preserve" xmlns:serif="http://www.serif.com/" style="fill-rule:evenodd;clip-rule:evenodd;stroke-linejoin:round;stroke-miterlimit:2;">
    <g transform="matrix(1.62338,0,0,1.62338,-519.483,96.4136)">
        <circle cx="477.695" cy="98.305" r="157.695" style="fill-opacity:0;"/>
        <path d="M477.695,-59.391C564.73,-59.391 635.391,11.27 635.391,98.305C635.391,185.339 564.73,256 477.695,256C390.661,256 320,185.339 320,98.305C320,11.27 390.661,-59.391 477.695,-59.391ZM477.695,-40.911C554.53,-40.911 616.911,21.47 616.911,98.305C616.911,175.14 554.53,237.52 477.695,237.52C400.86,237.52 338.48,175.14 338.48,98.305C338.48,21.47 400.86,-40.911 477.695,-40.911Z" style="fill:rgb(99,28,118);"/>
    </g>
    <g transform="matrix(0.604729,0,0,0.604729,62.4867,101.189)">
        <path d="M256,336L255.98,336C255.98,319.82 257.32,327.27 170.93,154.49C153.28,119.2 102.74,119.13 85.06,154.49C-2.06,328.75 0.02,320.33 0.02,336L0,336C0,380.18 57.31,416 128,416C198.69,416 256,380.18 256,336ZM128,176L200,320L56,320L128,176ZM639.98,336C639.98,319.82 641.32,327.27 554.93,154.49C537.28,119.2 486.74,119.13 469.06,154.49C381.94,328.75 384.02,320.33 384.02,336L384,336C384,380.18 441.31,416 512,416C582.69,416 640,380.18 640,336L639.98,336ZM440,320L512,176L584,320L440,320ZM528,448L352,448L352,153.25C375.51,142.96 393.16,121.77 398.39,96L528,96C536.84,96 544,88.84 544,80L544,48C544,39.16 536.84,32 528,32L383.64,32C369.04,12.68 346.09,0 320,0C293.91,0 270.96,12.68 256.36,32L112,32C103.16,32 96,39.16 96,48L96,80C96,88.84 103.16,96 112,96L241.61,96C246.84,121.76 264.48,142.96 288,153.25L288,448L112,448C103.16,448 96,455.16 96,464L96,496C96,504.84 103.16,512 112,512L528,512C536.84,512 544,504.84 544,496L544,464C544,455.16 536.84,448 528,448Z" style="fill:rgb(251,251,251);fill-rule:nonzero;"/>
    </g>
</svg>
