<?xml version="1.0" encoding="UTF-8" standalone="no"?>
<!DOCTYPE svg PUBLIC "-//W3C//DTD SVG 1.1//EN" "http://www.w3.org/Graphics/SVG/1.1/DTD/svg11.dtd">
<svg width="100%" height="100%" viewBox="0 0 512 512" version="1.1" xmlns="http://www.w3.org/2000/svg" xmlns:xlink="http://www.w3.org/1999/xlink" xml:space="preserve" xmlns:serif="http://www.serif.com/" style="fill-rule:evenodd;clip-rule:evenodd;stroke-linejoin:round;stroke-miterlimit:2;">
    <g transform="matrix(1.62338,0,0,1.62338,-519.483,96.4136)">
        <circle cx="477.695" cy="98.305" r="157.695" style="fill-opacity:0;"/>
        <path d="M477.695,-59.391C564.73,-59.391 635.391,11.27 635.391,98.305C635.391,185.339 564.73,256 477.695,256C390.661,256 320,185.339 320,98.305C320,11.27 390.661,-59.391 477.695,-59.391ZM477.695,-40.911C554.53,-40.911 616.911,21.47 616.911,98.305C616.911,175.14 554.53,237.52 477.695,237.52C400.86,237.52 338.48,175.14 338.48,98.305C338.48,21.47 400.86,-40.911 477.695,-40.911Z" style="fill:rgb(99,28,118);"/>
    </g>
    <g transform="matrix(0.66894,0,0,0.66894,63.3454,84.7514)">
        <path d="M572.52,241.4C518.29,135.59 410.93,64 288,64C165.07,64 57.68,135.64 3.48,241.41C-1.156,250.58 -1.156,261.43 3.48,270.6C57.71,376.41 165.07,448 288,448C410.93,448 518.32,376.36 572.52,270.59C577.156,261.42 577.156,250.57 572.52,241.4ZM288,400C209.004,400 144,334.996 144,256C144,177.004 209.004,112 288,112C366.996,112 432,177.004 432,256C432,256.023 432,256.047 432,256.07C432,335.028 367.028,400 288.07,400C288.047,400 288.023,400 288,400ZM288,160C279.431,160.12 270.918,161.395 262.69,163.79C268.737,172.007 272,181.947 272,192.15C272,218.4 250.4,240 224.15,240C213.947,240 204.007,236.737 195.79,230.69C193.57,238.868 192.445,247.305 192.445,255.78C192.445,308.323 235.682,351.56 288.225,351.56C340.769,351.56 384.005,308.323 384.005,255.78C384.005,203.236 340.769,160 288.225,160C288.15,160 288.075,160 288,160Z" style="fill:rgb(251,251,251);fill-rule:nonzero;"/>
    </g>
</svg>
