<?xml version="1.0" standalone="no"?>
<!DOCTYPE svg PUBLIC "-//W3C//DTD SVG 20010904//EN"
 "http://www.w3.org/TR/2001/REC-SVG-20010904/DTD/svg10.dtd">
<svg version="1.0" xmlns="http://www.w3.org/2000/svg"
 width="512.000000pt" height="512.000000pt" viewBox="0 0 512.000000 512.000000"
 preserveAspectRatio="xMidYMid meet">
<metadata>
Created by potrace 1.11, written by Peter Selinger 2001-2013
</metadata>
<g transform="translate(0.000000,512.000000) scale(0.100000,-0.100000)"
fill="#000000" stroke="none">
<path d="M2378 5116 c-1 -2 -34 -6 -73 -10 -38 -3 -97 -10 -130 -16 -33 -6
-76 -13 -95 -16 -75 -12 -300 -74 -395 -109 -724 -269 -1280 -830 -1540 -1555
-25 -71 -72 -230 -79 -270 -2 -14 -7 -36 -10 -50 -44 -190 -65 -557 -44 -780
34 -359 176 -786 353 -1065 165 -261 303 -426 510 -610 310 -276 739 -493
1135 -574 205 -43 297 -53 510 -56 253 -4 412 13 654 70 103 24 295 89 404
137 734 322 1274 960 1466 1733 13 55 27 116 30 135 3 19 8 49 11 65 24 141
30 218 30 410 0 176 -6 270 -24 390 -100 656 -460 1257 -996 1662 -213 161
-495 307 -755 391 -73 24 -247 68 -300 76 -19 3 -44 8 -56 10 -12 2 -45 7 -74
11 -29 4 -62 9 -74 12 -23 5 -452 13 -458 9z m-68 -1022 c0 -1 -25 -73 -56
-160 -30 -88 -71 -204 -91 -259 -19 -55 -43 -120 -52 -145 l-17 -45 -74 -5
-75 -5 1 -298 c0 -204 4 -301 11 -305 6 -4 78 -7 159 -6 l149 1 50 -66 c27
-36 53 -70 57 -76 5 -5 25 -31 44 -57 l36 -47 -19 -28 c-30 -47 -43 -67 -53
-88 -5 -11 -40 -72 -77 -135 l-69 -115 -144 -5 -144 -5 0 -303 0 -304 284 1
285 2 108 -145 c101 -136 138 -179 125 -145 -3 8 -13 48 -23 89 -9 41 -23 99
-31 129 -7 30 -11 58 -8 62 2 4 52 8 110 8 197 1 288 49 349 184 72 157 -13
358 -175 412 -14 5 -112 11 -219 14 -173 5 -193 8 -179 21 8 8 50 47 94 85
351 313 365 326 355 339 -5 6 -29 48 -54 93 l-45 82 36 12 c174 55 262 252
187 417 -58 127 -157 184 -317 183 -32 0 -58 3 -58 7 0 4 15 23 33 42 18 19
115 127 217 240 248 276 212 248 274 218 151 -74 327 -255 398 -408 64 -137
88 -232 93 -365 10 -240 -105 -491 -285 -628 l-35 -27 25 -17 c139 -96 262
-301 288 -478 9 -63 8 -216 -2 -273 -39 -232 -169 -435 -381 -600 -75 -58
-228 -124 -345 -148 -77 -17 -157 -18 -900 -19 l-815 0 -3 1535 -2 1536 490 0
c269 -1 490 -1 490 -2z"/>
</g>
</svg>
