<?xml version="1.0" encoding="UTF-8" standalone="no"?>
<!DOCTYPE svg PUBLIC "-//W3C//DTD SVG 1.1//EN" "http://www.w3.org/Graphics/SVG/1.1/DTD/svg11.dtd">
<svg width="100%" height="100%" viewBox="0 0 150 139" version="1.1" xmlns="http://www.w3.org/2000/svg" xmlns:xlink="http://www.w3.org/1999/xlink" xml:space="preserve" xmlns:serif="http://www.serif.com/" style="fill-rule:evenodd;clip-rule:evenodd;stroke-linejoin:round;stroke-miterlimit:2;">
    <g id="Head" transform="matrix(1.09712,0,0,1.09712,-11.4309,-13.2422)">
        <path d="M97.85,15.36L69.67,34.83L93.05,56.44L67.28,76.44L77.77,102.36L56.78,115.86L67.28,102.36L51.05,82.55L67.28,58.24L46.28,39.33L66.8,12.07C35.91,16.44 12.15,42.97 12.15,75.06C12.15,110.2 40.64,138.69 75.78,138.69C110.92,138.69 139.41,110.2 139.41,75.06C139.41,47.68 122.11,24.34 97.85,15.36Z" style="fill-rule:nonzero;"/>
    </g>
    <g id="Lettering" transform="matrix(1.09712,0,0,1.09712,-15.233,-14.8874)">
        <g transform="matrix(1.05652,-0.35262,0.35262,1.05652,40.9965,81.5487)">
            <g transform="matrix(34.713,0,0,34.713,0,0)">
                <path d="M0.625,-0.21C0.625,-0.181 0.619,-0.154 0.608,-0.128C0.597,-0.103 0.582,-0.081 0.563,-0.062C0.544,-0.043 0.522,-0.028 0.497,-0.017C0.471,-0.006 0.444,0 0.415,0L0.065,0L0.065,-0.7L0.415,-0.7C0.444,-0.7 0.471,-0.695 0.497,-0.684C0.522,-0.673 0.544,-0.657 0.563,-0.638C0.582,-0.619 0.597,-0.597 0.608,-0.572C0.619,-0.546 0.625,-0.519 0.625,-0.49C0.625,-0.477 0.623,-0.464 0.62,-0.45C0.616,-0.437 0.611,-0.423 0.604,-0.411C0.598,-0.398 0.59,-0.386 0.581,-0.376C0.572,-0.366 0.562,-0.357 0.551,-0.35C0.562,-0.344 0.572,-0.336 0.582,-0.325C0.591,-0.314 0.598,-0.303 0.605,-0.29C0.611,-0.277 0.616,-0.264 0.62,-0.25C0.623,-0.236 0.625,-0.223 0.625,-0.21ZM0.205,-0.14L0.415,-0.14C0.425,-0.14 0.434,-0.142 0.442,-0.146C0.451,-0.149 0.458,-0.154 0.465,-0.16C0.471,-0.167 0.476,-0.174 0.479,-0.183C0.483,-0.191 0.485,-0.2 0.485,-0.21C0.485,-0.22 0.483,-0.229 0.479,-0.237C0.476,-0.246 0.471,-0.253 0.465,-0.26C0.458,-0.266 0.451,-0.271 0.442,-0.274C0.434,-0.278 0.425,-0.28 0.415,-0.28L0.205,-0.28L0.205,-0.14ZM0.205,-0.42L0.415,-0.42C0.425,-0.42 0.434,-0.422 0.442,-0.425C0.451,-0.429 0.458,-0.434 0.465,-0.44C0.471,-0.447 0.476,-0.454 0.479,-0.463C0.483,-0.471 0.485,-0.48 0.485,-0.49C0.485,-0.5 0.483,-0.509 0.479,-0.518C0.476,-0.526 0.471,-0.533 0.465,-0.54C0.458,-0.546 0.451,-0.551 0.442,-0.555C0.434,-0.558 0.425,-0.56 0.415,-0.56L0.205,-0.56L0.205,-0.42Z" style="fill:rgb(157,72,112);fill-rule:nonzero;"/>
            </g>
            <g transform="matrix(34.713,0,0,34.713,23.1194,0)">
                <path d="M0.208,-0.665C0.208,-0.653 0.206,-0.641 0.201,-0.63C0.196,-0.62 0.19,-0.61 0.182,-0.602C0.174,-0.594 0.164,-0.588 0.153,-0.583C0.142,-0.579 0.131,-0.576 0.118,-0.576C0.106,-0.576 0.094,-0.579 0.083,-0.583C0.072,-0.588 0.063,-0.594 0.055,-0.602C0.047,-0.61 0.041,-0.62 0.036,-0.63C0.031,-0.641 0.029,-0.653 0.029,-0.665C0.029,-0.677 0.031,-0.689 0.036,-0.699C0.041,-0.71 0.047,-0.72 0.055,-0.728C0.063,-0.736 0.072,-0.742 0.083,-0.747C0.094,-0.752 0.106,-0.754 0.118,-0.754C0.131,-0.754 0.142,-0.752 0.153,-0.747C0.164,-0.742 0.174,-0.736 0.182,-0.728C0.19,-0.72 0.196,-0.71 0.201,-0.699C0.206,-0.689 0.208,-0.677 0.208,-0.665ZM0.185,0L0.051,0L0.051,-0.523L0.185,-0.523L0.185,0Z" style="fill:rgb(157,72,112);fill-rule:nonzero;"/>
            </g>
            <g transform="matrix(34.713,0,0,34.713,31.3061,0)">
                <path d="M0.557,0L0.525,0L0.473,-0.072C0.46,-0.06 0.447,-0.05 0.433,-0.04C0.419,-0.03 0.404,-0.021 0.388,-0.014C0.373,-0.007 0.357,-0.001 0.34,0.003C0.324,0.008 0.307,0.01 0.29,0.01C0.253,0.01 0.219,0.004 0.186,-0.009C0.154,-0.021 0.126,-0.039 0.101,-0.063C0.077,-0.086 0.058,-0.115 0.044,-0.149C0.03,-0.184 0.023,-0.222 0.023,-0.266C0.023,-0.307 0.03,-0.344 0.044,-0.378C0.058,-0.412 0.077,-0.441 0.101,-0.466C0.126,-0.49 0.154,-0.509 0.186,-0.523C0.219,-0.536 0.253,-0.543 0.29,-0.543C0.307,-0.543 0.324,-0.541 0.34,-0.537C0.357,-0.532 0.373,-0.527 0.389,-0.519C0.404,-0.512 0.419,-0.503 0.433,-0.493C0.448,-0.483 0.461,-0.472 0.473,-0.46L0.525,-0.522L0.557,-0.522L0.557,0ZM0.423,-0.266C0.423,-0.284 0.419,-0.302 0.412,-0.319C0.405,-0.336 0.396,-0.351 0.384,-0.365C0.372,-0.378 0.358,-0.388 0.342,-0.396C0.325,-0.404 0.308,-0.408 0.29,-0.408C0.272,-0.408 0.255,-0.405 0.239,-0.399C0.222,-0.393 0.208,-0.384 0.197,-0.372C0.185,-0.36 0.175,-0.345 0.168,-0.327C0.162,-0.309 0.158,-0.289 0.158,-0.266C0.158,-0.243 0.162,-0.223 0.168,-0.205C0.175,-0.188 0.185,-0.173 0.197,-0.161C0.208,-0.149 0.222,-0.139 0.239,-0.133C0.255,-0.127 0.272,-0.124 0.29,-0.124C0.308,-0.124 0.325,-0.128 0.342,-0.136C0.358,-0.144 0.372,-0.155 0.384,-0.168C0.396,-0.181 0.405,-0.196 0.412,-0.213C0.419,-0.23 0.423,-0.248 0.423,-0.266Z" style="fill:rgb(157,72,112);fill-rule:nonzero;"/>
            </g>
            <g transform="matrix(34.713,0,0,34.713,52.4085,0)">
                <path d="M0.338,0L0.033,0L0.033,-0.133L0.338,-0.133C0.347,-0.133 0.355,-0.136 0.361,-0.143C0.368,-0.149 0.371,-0.157 0.371,-0.166C0.371,-0.175 0.368,-0.182 0.361,-0.185C0.355,-0.188 0.347,-0.189 0.338,-0.189L0.199,-0.189C0.176,-0.189 0.154,-0.193 0.134,-0.202C0.114,-0.211 0.097,-0.223 0.082,-0.238C0.067,-0.253 0.055,-0.271 0.046,-0.291C0.038,-0.311 0.033,-0.333 0.033,-0.356C0.033,-0.379 0.038,-0.401 0.046,-0.421C0.055,-0.441 0.067,-0.459 0.082,-0.474C0.097,-0.489 0.114,-0.5 0.134,-0.509C0.154,-0.518 0.176,-0.522 0.199,-0.522L0.469,-0.522L0.469,-0.389L0.199,-0.389C0.19,-0.389 0.182,-0.386 0.176,-0.379C0.169,-0.373 0.166,-0.365 0.166,-0.356C0.166,-0.347 0.169,-0.338 0.176,-0.332C0.182,-0.325 0.19,-0.322 0.199,-0.322L0.338,-0.322C0.361,-0.322 0.382,-0.318 0.402,-0.31C0.423,-0.303 0.44,-0.292 0.455,-0.278C0.47,-0.265 0.482,-0.248 0.491,-0.229C0.5,-0.21 0.504,-0.189 0.504,-0.166C0.504,-0.143 0.5,-0.121 0.491,-0.101C0.482,-0.081 0.47,-0.064 0.455,-0.049C0.44,-0.033 0.423,-0.022 0.402,-0.013C0.382,-0.004 0.361,0 0.338,0Z" style="fill:rgb(157,72,112);fill-rule:nonzero;"/>
            </g>
        </g>
        <g transform="matrix(0.9486,-0.3166,0.3166,0.9486,19.1537,120.193)">
            <g transform="matrix(51.108,0,0,51.108,0,0)">
                <path d="M0.624,-0.072C0.591,-0.044 0.555,-0.022 0.515,-0.007C0.474,0.008 0.432,0.015 0.389,0.015C0.356,0.015 0.324,0.011 0.293,0.002C0.262,-0.006 0.234,-0.019 0.207,-0.034C0.18,-0.05 0.155,-0.069 0.133,-0.091C0.111,-0.113 0.092,-0.138 0.076,-0.165C0.061,-0.192 0.048,-0.22 0.04,-0.251C0.031,-0.282 0.027,-0.314 0.027,-0.347C0.027,-0.38 0.031,-0.412 0.04,-0.443C0.048,-0.474 0.061,-0.503 0.076,-0.53C0.092,-0.557 0.111,-0.581 0.133,-0.604C0.155,-0.626 0.18,-0.645 0.207,-0.66C0.234,-0.676 0.262,-0.688 0.293,-0.697C0.324,-0.706 0.356,-0.71 0.389,-0.71C0.432,-0.71 0.474,-0.703 0.515,-0.688C0.555,-0.673 0.591,-0.651 0.624,-0.623L0.55,-0.501C0.529,-0.523 0.505,-0.54 0.477,-0.552C0.449,-0.564 0.42,-0.57 0.389,-0.57C0.358,-0.57 0.329,-0.564 0.302,-0.552C0.275,-0.541 0.252,-0.525 0.231,-0.505C0.211,-0.485 0.195,-0.461 0.184,-0.434C0.172,-0.407 0.166,-0.378 0.166,-0.347C0.166,-0.317 0.172,-0.288 0.184,-0.261C0.195,-0.234 0.211,-0.211 0.231,-0.19C0.252,-0.17 0.275,-0.154 0.302,-0.143C0.329,-0.131 0.358,-0.125 0.389,-0.125C0.42,-0.125 0.449,-0.131 0.477,-0.143C0.505,-0.155 0.529,-0.172 0.55,-0.194L0.624,-0.072Z" style="fill:rgb(98,34,116);fill-rule:nonzero;"/>
            </g>
            <g transform="matrix(51.108,0,0,51.108,32.7161,0)">
                <path d="M0.184,0L0.051,0L0.051,-0.523L0.083,-0.523L0.127,-0.461C0.148,-0.48 0.173,-0.496 0.2,-0.506C0.228,-0.517 0.256,-0.522 0.285,-0.522L0.403,-0.522L0.403,-0.389L0.285,-0.389C0.271,-0.389 0.258,-0.387 0.246,-0.381C0.233,-0.376 0.222,-0.369 0.213,-0.36C0.204,-0.351 0.197,-0.34 0.192,-0.328C0.187,-0.315 0.184,-0.302 0.184,-0.288L0.184,0Z" style="fill:rgb(98,34,116);fill-rule:nonzero;"/>
            </g>
            <g transform="matrix(51.108,0,0,51.108,53.3789,0)">
                <path d="M0.557,0L0.525,0L0.473,-0.072C0.46,-0.06 0.447,-0.05 0.433,-0.04C0.419,-0.03 0.404,-0.021 0.388,-0.014C0.373,-0.007 0.357,-0.001 0.34,0.003C0.324,0.008 0.307,0.01 0.29,0.01C0.253,0.01 0.219,0.004 0.186,-0.009C0.154,-0.021 0.126,-0.039 0.101,-0.063C0.077,-0.086 0.058,-0.115 0.044,-0.149C0.03,-0.184 0.023,-0.222 0.023,-0.266C0.023,-0.307 0.03,-0.344 0.044,-0.378C0.058,-0.412 0.077,-0.441 0.101,-0.466C0.126,-0.49 0.154,-0.509 0.186,-0.523C0.219,-0.536 0.253,-0.543 0.29,-0.543C0.307,-0.543 0.324,-0.541 0.34,-0.537C0.357,-0.532 0.373,-0.527 0.389,-0.519C0.404,-0.512 0.419,-0.503 0.433,-0.493C0.448,-0.483 0.461,-0.472 0.473,-0.46L0.525,-0.522L0.557,-0.522L0.557,0ZM0.423,-0.266C0.423,-0.284 0.419,-0.302 0.412,-0.319C0.405,-0.336 0.396,-0.351 0.384,-0.365C0.372,-0.378 0.358,-0.388 0.342,-0.396C0.325,-0.404 0.308,-0.408 0.29,-0.408C0.272,-0.408 0.255,-0.405 0.239,-0.399C0.222,-0.393 0.208,-0.384 0.197,-0.372C0.185,-0.36 0.175,-0.345 0.168,-0.327C0.162,-0.309 0.158,-0.289 0.158,-0.266C0.158,-0.243 0.162,-0.223 0.168,-0.205C0.175,-0.188 0.185,-0.173 0.197,-0.161C0.208,-0.149 0.222,-0.139 0.239,-0.133C0.255,-0.127 0.272,-0.124 0.29,-0.124C0.308,-0.124 0.325,-0.128 0.342,-0.136C0.358,-0.144 0.372,-0.155 0.384,-0.168C0.396,-0.181 0.405,-0.196 0.412,-0.213C0.419,-0.23 0.423,-0.248 0.423,-0.266Z" style="fill:rgb(98,34,116);fill-rule:nonzero;"/>
            </g>
            <g transform="matrix(51.108,0,0,51.108,84.448,0)">
                <path d="M0.508,-0.419L0.41,-0.321C0.405,-0.334 0.399,-0.347 0.39,-0.358C0.382,-0.369 0.372,-0.378 0.362,-0.385C0.351,-0.393 0.34,-0.398 0.327,-0.402C0.315,-0.406 0.302,-0.408 0.289,-0.408C0.271,-0.408 0.254,-0.404 0.238,-0.397C0.221,-0.389 0.207,-0.379 0.196,-0.365C0.184,-0.352 0.174,-0.336 0.167,-0.317C0.161,-0.299 0.157,-0.278 0.157,-0.256C0.157,-0.238 0.161,-0.221 0.167,-0.205C0.174,-0.189 0.184,-0.175 0.196,-0.163C0.207,-0.151 0.221,-0.141 0.238,-0.134C0.254,-0.127 0.271,-0.124 0.289,-0.124C0.302,-0.124 0.315,-0.126 0.327,-0.129C0.339,-0.133 0.35,-0.138 0.361,-0.145C0.371,-0.151 0.381,-0.16 0.389,-0.169C0.397,-0.179 0.404,-0.189 0.409,-0.201L0.507,-0.103C0.494,-0.085 0.48,-0.07 0.464,-0.056C0.448,-0.042 0.431,-0.03 0.412,-0.02C0.393,-0.01 0.373,-0.003 0.353,0.002C0.332,0.007 0.311,0.01 0.289,0.01C0.252,0.01 0.218,0.003 0.185,-0.011C0.153,-0.025 0.125,-0.044 0.1,-0.068C0.076,-0.092 0.057,-0.12 0.043,-0.152C0.029,-0.185 0.022,-0.219 0.022,-0.256C0.022,-0.296 0.029,-0.333 0.043,-0.368C0.057,-0.403 0.076,-0.433 0.1,-0.459C0.125,-0.485 0.153,-0.506 0.185,-0.521C0.218,-0.535 0.252,-0.543 0.289,-0.543C0.311,-0.543 0.332,-0.54 0.353,-0.535C0.374,-0.529 0.394,-0.521 0.413,-0.51C0.432,-0.5 0.45,-0.487 0.466,-0.472C0.482,-0.456 0.496,-0.439 0.508,-0.419Z" style="fill:rgb(98,34,116);fill-rule:nonzero;"/>
            </g>
            <g transform="matrix(51.108,0,0,51.108,111.125,0)">
                <path d="M0.185,0L0.051,0L0.051,-0.731L0.185,-0.731L0.185,-0.27L0.384,-0.522L0.537,-0.522L0.364,-0.304L0.537,0L0.384,0L0.278,-0.19L0.185,-0.067L0.185,0Z" style="fill:rgb(98,34,116);fill-rule:nonzero;"/>
            </g>
        </g>
    </g>
</svg>
