<?xml version="1.0" encoding="UTF-8" standalone="no"?>
<!DOCTYPE svg PUBLIC "-//W3C//DTD SVG 1.1//EN" "http://www.w3.org/Graphics/SVG/1.1/DTD/svg11.dtd">
<svg width="100%" height="100%" viewBox="0 0 120 150" version="1.1" xmlns="http://www.w3.org/2000/svg" xmlns:xlink="http://www.w3.org/1999/xlink" xml:space="preserve" xmlns:serif="http://www.serif.com/" style="fill-rule:evenodd;clip-rule:evenodd;stroke-linejoin:round;stroke-miterlimit:2;">
    <g transform="matrix(1.53019,0,0,1.53019,-59.6424,-33.9165)">
        <path d="M70.239,22.165L63.339,41.784L58.603,41.784L58.603,61.403L68.819,61.403L74.67,69.23L67.72,81.022L58.603,81.022L58.603,100.573L76.758,100.573L84.3,110.62L81.984,100.573L87.998,100.573C89.365,100.573 90.641,100.323 91.826,99.821C93.011,99.32 94.048,98.625 94.936,97.736C95.825,96.848 96.52,95.811 97.021,94.626C97.523,93.441 97.773,92.165 97.773,90.798C97.773,89.431 97.523,88.155 97.021,86.97C96.52,85.785 95.825,84.748 94.936,83.859C94.048,82.971 93.011,82.276 91.826,81.774C90.641,81.273 89.365,81.022 87.998,81.022L77.851,81.022L93.12,67.4L89.71,61.264C90.445,61.141 91.15,60.937 91.826,60.651C93.011,60.15 94.048,59.455 94.936,58.566C95.825,57.678 96.52,56.629 97.021,55.422C97.523,54.214 97.773,52.927 97.773,51.559C97.773,50.192 97.523,48.916 97.021,47.731C96.52,46.546 95.825,45.51 94.936,44.621C94.048,43.732 93.011,43.037 91.826,42.536C90.641,42.035 89.365,41.784 87.998,41.784L84.561,41.784L99.935,24.722C103.273,26.247 106.21,28.278 108.745,30.812C111.411,33.478 113.519,36.589 115.068,40.143C116.618,43.698 117.392,47.503 117.392,51.559C117.392,53.382 117.142,55.251 116.64,57.165C116.139,59.079 115.433,60.925 114.521,62.702C113.61,64.479 112.516,66.097 111.24,67.556C109.964,69.014 108.551,70.222 107.002,71.179C108.597,72.045 110.032,73.218 111.308,74.699C112.584,76.18 113.678,77.809 114.59,79.587C115.501,81.364 116.196,83.221 116.675,85.158C117.153,87.095 117.392,88.975 117.392,90.798C117.392,94.854 116.618,98.659 115.068,102.214C113.519,105.768 111.411,108.879 108.745,111.545C106.079,114.211 102.968,116.319 99.414,117.868C95.859,119.418 92.054,120.192 87.998,120.192L38.984,120.192L38.984,22.165L70.239,22.165Z" style="fill-rule:nonzero;"/>
    </g>
</svg>
